<svg xmlns="http://www.w3.org/2000/svg" viewBox="0 0 342 76">
  <path fill="#3f3a60" d="M106.992 26.05c1.664 0 2.668 1.132 2.48 2.797l-2.068 18.306c-.189 1.663-1.448 2.797-3.113 2.797H92.004c-1.666 0-2.669-1.134-2.482-2.797l2.069-18.306c.188-1.665 1.45-2.797 3.114-2.797zm13.065 0 .393 15.011 4.917-15.01h5.064l1.396 14.586 3.916-14.587h5.523l-7.198 23.9h-5.418l-2.177-13.314-5.293 13.314h-5.31l-1.833-23.9zm41.282 0-.58 5.133h-9.49l-.473 4.18h8.216l-.577 5.098h-8.214l-.488 4.32h9.49l-.584 5.17h-15.615l2.7-23.9zm45.6 0-.58 5.133h-9.488l-.472 4.18h8.215l-.577 5.098h-8.215l-.487 4.32h9.488l-.584 5.17h-15.613l2.7-23.9zm83.609 0c1.95 0 3.047 1.238 2.848 3.01l-.6 5.31c-.184 1.63-1.423 3.186-3.678 3.718 2.136.53 3.206 2.017 3.026 3.612l-.588 5.203c-.212 1.878-1.583 3.047-3.531 3.047h-14.906l2.7-23.9zm-206.18 0c1.451 0 2.558 1.168 2.385 2.69l-1.388 12.288c-.16 1.416-1.542 2.69-2.994 2.69h-8.464l-.703 6.232h-6.16l2.7-23.9zm97.931 0c1.452 0 2.558 1.168 2.386 2.69l-1.236 10.942c-.164 1.452-1.543 2.69-2.995 2.69h-.177l2.082 7.578h-6.019l-2.117-7.578h-2.62l-.857 7.578h-6.16l2.7-23.9zm43.44 0c2.62 0 4.609 2.16 4.305 4.85l-1.6 14.164c-.31 2.727-2.783 4.885-5.403 4.885h-12.855l2.7-23.899zm91.754 0-.58 5.134h-11.084c-.177 0-.373.177-.397.389l-1.448 12.818a.31.31 0 0 0 .313.354h4.958c.247 0 .405-.141.43-.354l.456-4.036h-3.287l2.568-5.064h6.952l-1.381 11.933a3.08 3.08 0 0 1-3.034 2.725h-11.967c-1.524 0-2.631-1.168-2.455-2.725l2.089-18.484c.164-1.451 1.542-2.69 3.067-2.69zm23.852 0-.58 5.134h-11.084c-.177 0-.373.177-.396.389l-1.449 12.818a.31.31 0 0 0 .313.354h4.958c.246 0 .405-.141.43-.354l.456-4.036h-3.287l2.568-5.064h6.952l-1.38 11.933a3.079 3.079 0 0 1-3.035 2.725h-11.967c-1.524 0-2.63-1.168-2.456-2.725l2.09-18.484c.164-1.451 1.542-2.69 3.067-2.69zm-55.47 14.091h-5.523l-.597 5.276h5.525c.248 0 .374-.176.393-.354l.513-4.532c.02-.176-.062-.39-.31-.39zm-36.813-9.302c1.168 0 1.826.742 1.706 1.804l-.359 3.183c-.11.975-.853 1.91-2.205 2.229 1.28.317 1.923 1.208 1.813 2.163l-.35 3.119c-.128 1.124-.95 1.825-2.117 1.825h-8.933l1.618-14.323zm8.848 0-.746 6.598c-.012.107.103.213.21.213h2.95c.126 0 .16-.106.172-.213l.744-6.599h3.694l-.953 8.424c-.105.934-.935 1.698-1.803 1.698h-1.89l-.476 4.201h-3.69l.474-4.2h-1.91c-.869 0-1.526-.765-1.42-1.699l.952-8.424zm-155.256.38h-4.85c-.142 0-.34.177-.362.39L95.988 44.46c-.02.177.14.32.284.32h4.85c.212 0 .406-.143.426-.32L103 31.608a.346.346 0 0 0-.347-.39zm119.497-.035h-3.684l-1.536 13.597h3.684c1.027 0 1.815-.708 1.93-1.736l1.145-10.127c.116-1.026-.512-1.734-1.54-1.734zm24.11 8.1h-3.309l-.359 3.162h3.311c.15 0 .225-.106.236-.212l.307-2.716c.013-.106-.036-.233-.186-.233zM80 31.185h-4.675l-.844 7.47h4.674c.178 0 .338-.176.354-.317l.77-6.8c.02-.175-.102-.353-.279-.353zm97.966 0h-5.098l-.72 6.373h5.098c.143 0 .34-.175.354-.32l.645-5.7c.02-.176-.137-.353-.279-.353zm68.93 2.498h-3.31l-.335 2.97h3.308c.15 0 .225-.105.24-.232l.283-2.505c.012-.106-.037-.233-.187-.233zm40.036-2.889h-5.522l-.562 4.958h5.524c.25 0 .374-.178.397-.388l.473-4.179c.02-.178-.06-.39-.31-.39z" style="fill-rule:evenodd;stroke:none;stroke-width:1"/>
  <path d="M49.219 0 1.787 17.482 4.38 38.424 0 42.65l13.059 32.756 27.753-10.24 9.649-22.684-4.143-3.998 3.055-24.548-7.47 2.037L49.218 0zM34.682 16.035 26.76 33.406l7.097 10.598L15.12 63.309l8.824-19.016-6.714-10.129 17.453-18.129z" style="fill-rule:evenodd;stroke:none;stroke-width:1;fill:#ff5100;fill-opacity:1" transform="translate(.654 .297)"/>
</svg>
