<svg xmlns="http://www.w3.org/2000/svg" viewBox="0 0 247.841 79.815">
  <path d="M7.843 127.813q-.064-.192.386-.964.45-.836.965-1.993.578-1.222 1.093-2.701.579-1.543.771-3.151.258-1.608 0-3.215-.257-1.608-1.35-3.087-.643-.771-1.929-.836-1.222-.128-2.83.386-1.543.45-3.279 1.48-1.672.964-3.086 2.314-1.415 1.286-2.444 2.894-.964 1.607-1.093 3.28-.128 1.35.064 2.507.258 1.157.643 2.122.386.964.836 1.8.45.836.836 1.48.515.9 1.608 1.993t2.38 2.508q1.285 1.35 2.571 3.086 1.286 1.736 2.25 3.922.965 2.187 1.351 4.887.386 2.701-.064 5.98-.708 4.759-2.25 7.91-1.544 3.215-3.409 5.144-1.8 1.929-3.665 2.765-1.865.9-3.087 1.157-.964.193-2.314.322-1.286.193-2.765-.064-1.415-.193-2.894-.9-1.479-.644-2.636-2.058-1.35-1.608-2.122-3.473-.708-1.607-1.03-3.73-.385-2.057.322-4.307.515-.58 1.093-1.03.58-.45 1.158-.77.643-.387 1.35-.708.836-.257 1.672-.45.707-.129 1.479-.129.836-.064 1.543.193-.964 1.093-1.35 2.058-.257.514-.386.9-.257 1.222-.193 2.893.129 1.737.708 3.28.643 1.607 1.8 2.7 1.157 1.158 3.086 1.222 4.695.129 7.974-7.33 1.093-2.315 1.093-4.694.064-2.38-.579-4.566-.578-2.186-1.607-4.05-.965-1.93-1.994-3.28-1.028-1.35-2.507-2.894-1.415-1.607-2.83-3.472-1.414-1.865-2.572-4.051-1.093-2.186-1.479-4.758-.514-3.601.643-6.56 1.222-3.022 3.215-5.272 2.058-2.25 4.437-3.665 2.444-1.415 4.309-1.8 10.352-2.058 13.567 3.472 1.35 2.121 1.48 4.5.128 2.38-.322 4.438-.386 1.993-1.029 3.408-.579 1.35-.772 1.479-.385.385-1.221.835-.836.45-2.701.836-.514.129-1.029.129-.45 0-.964-.064-.515-.065-.9-.258zm41.268 15.369q.45-.515.9-.515.514-.064.772.258.321.257.257.835 0 .58-.515 1.286-1.221 1.672-2.829 3.473-1.607 1.736-3.472 3.408-1.8 1.672-3.665 3.15-1.865 1.48-3.601 2.444-1.93 1.093-3.28 1.093-1.286 0-2.572-1.672-1.157-1.479-1.157-3.15.064-1.737.771-4.309.45-1.607 1.222-3.793.836-2.251 1.286-4.309.515-2.057.322-3.472-.193-1.479-1.672-1.479-1.029 0-2.25.707-1.158.708-2.38 1.865-1.157 1.093-2.25 2.508-1.094 1.415-1.93 2.765-.514 2.508-1.028 4.951-.45 2.058-.965 4.501-.45 2.38-.9 4.244-.386.322-.836.45-.45.129-.836.129-.45 0-.9-.064-.515-.129-.965-.386-.386-.257-.771-.707-.386-.386-.58-1.094 2.894-11.896 4.566-19.097 1.672-7.202 2.572-10.996 1.03-4.501 1.415-6.237.193-1.222.322-2.38.128-1.028.128-2.122 0-1.093-.193-1.993.515-.321 1.093-.514.643-.193 1.222-.322.707-.193 1.415-.321.707-.129 1.286-.129.514 0 .964.129.45.064.58.385.385.322.32 1.286 0 .965-.128 1.994-.257 1.222-.579 2.636-1.35 5.209-3.022 10.16-1.672 4.887-3.086 10.481.835-1.286 1.993-2.636 1.157-1.35 2.508-2.444 1.414-1.157 2.958-1.864 1.543-.772 3.279-.772.9 0 1.672.322.836.257 1.415.964.643.643.964 1.8.322 1.094.257 2.766 0 1.028-.257 2.121-.193 1.094-.579 2.444-.385 1.286-1.028 2.894-.58 1.607-1.415 3.73-.579 1.478-.9 2.507-.322 1.029.128 1.8.579 1.03 2.25.515 1.737-.579 5.145-3.344.772-.643 1.736-1.607.965-.965 1.865-1.93.9-1.028 1.672-1.929.771-.9 1.286-1.414zm27.057.771q-1.93 2.83-4.373 5.53-2.443 2.637-5.208 4.759-2.701 2.057-5.595 3.343-2.83 1.286-5.53 1.286-1.414 0-3.086-.707-1.608-.643-2.958-2.058-1.35-1.414-2.187-3.665-.771-2.25-.45-5.465.258-2.637 1.608-5.53 1.415-2.958 3.408-5.402 2.058-2.443 4.565-4.05 2.573-1.608 5.145-1.608 2.443 0 3.536 1.221 1.093 1.222.965 3.023-.193 1.993-1.158 3.665-.9 1.672-2.186 3.022-1.286 1.35-2.765 2.443-1.415 1.094-2.7 1.994-1.415.964-2.701 1.865-1.286.836-2.25 1.543.063 1.607.578 2.7.514 1.094 1.286 1.801.771.643 1.736.965 1.029.257 2.058.257 2.186 0 4.565-1.35 2.38-1.415 4.63-3.344 2.315-1.994 4.244-4.116 1.993-2.122 3.28-3.665.45-.514.9-.579.514-.128.771.129.322.193.322.772 0 .514-.45 1.221zm-16.462-9.902q-.771 0-1.865.771-1.028.772-2.057 2.251-1.03 1.415-1.93 3.537-.9 2.057-1.35 4.758.772-.579 1.672-1.157.9-.643 1.8-1.35 2.766-2.123 3.859-3.73 1.093-1.608 1.222-2.765.128-1.222-.258-1.736-.386-.58-1.093-.58zm11.303 22.248q2.83-11.896 4.501-19.097 1.736-7.202 2.636-10.996 1.03-4.501 1.415-6.237.193-1.222.322-2.38.128-1.028.128-2.122 0-1.093-.193-1.993.515-.321 1.093-.514.643-.193 1.222-.322.707-.193 1.415-.321.707-.129 1.286-.129.514 0 .964.129.45.064.58.385.385.322.32 1.286 0 .965-.128 1.994-.257 1.222-.579 2.636-.771 2.765-2.122 7.974l-3.15 12.089q-1.93 7.652-4.888 19.29-.321.322-.771.45-.45.129-.836.129-.45 0-.965-.064-.45-.129-.9-.386-.386-.257-.771-.707-.386-.386-.58-1.094zm17.09-5.658q-.708-.708-1.03-1.35-.256-.708-.385-1.35-.129-.708 0-1.416.257-.9.772-1.671.45-.708 1.221-1.415.772-.772 2.058-1.415.836-2.057 1.479-4.308.707-2.315 1.222-4.18.578-2.186 1.029-4.372 1.607-5.466 1.671-8.874.065-3.472-.128-4.565l-.129-.9q-.128-.386-.257-.837-.064-.514-.193-.964.707-.386 1.222-.643.579-.257.964-.386.45-.193.836-.257 1.48-.322 2.765-.322 1.35-.064 1.48.45.064.322.128 1.158.128.836.128 2.058 0 1.221-.192 2.765-.193 1.479-.708 3.15-.45 1.48-1.221 4.116-.708 2.25-1.865 6.044-1.158 3.73-3.022 9.581 1.929-.643 4.243-1.222 2.315-.578 4.695-.964 2.443-.386 4.822-.579 2.444-.193 4.501-.064.386 0 .515.386.193.321 0 .707-.129.386-.708.772-.514.321-1.543.386-1.286.128-2.83.321-1.542.129-3.214.45-1.608.257-3.215.707-1.608.386-3.023.965l-2.186.772q-.9.321-1.929.771-.964.386-1.607.708l-1.48 4.694q3.73 2.636 5.724 5.401 2.057 2.765 2.957 5.08 1.094 2.7 1.222 5.273 0 2.829-.836 5.658-.836 2.894-2.25 5.466-1.35 2.636-3.215 4.887-1.8 2.25-3.859 3.858-1.993 1.608-4.115 2.444-2.058.836-3.922.643-1.35-.129-2.251-.9-.9-.708-1.35-1.865-.45-1.093-.515-2.508-.064-1.35.257-2.7.258-1.351 1.094-5.016.707-3.087 2.186-9.003 1.479-5.851 3.987-15.625zm3.793 3.022q-.9 3.215-1.607 5.916-.643 2.7-1.093 4.758-.579 2.38-.9 4.308-.58 2.444-1.222 4.823-.579 2.38-.9 4.244-.386 1.93-.322 3.087.064 1.157.836 1.157 1.865.129 3.858-1.479 2.058-1.543 3.73-3.987 1.672-2.379 2.765-5.208 1.093-2.765 1.093-5.144 0-2.637-.836-5.209-.579-1.35-1.35-2.636-.708-1.093-1.737-2.315-.964-1.286-2.315-2.315zm40.368-25.85q-.065-.192.386-.964.45-.836.964-1.993.579-1.222 1.093-2.701.579-1.543.772-3.151.257-1.608 0-3.215-.257-1.608-1.35-3.087-.643-.771-1.93-.836-1.221-.128-2.829.386-1.543.45-3.28 1.48-1.671.964-3.086 2.314-1.414 1.286-2.443 2.894-.965 1.607-1.093 3.28-.129 1.35.064 2.507.257 1.157.643 2.122.386.964.836 1.8.45.836.836 1.48.514.9 1.607 1.993t2.38 2.508q1.286 1.35 2.572 3.086 1.286 1.736 2.25 3.922.965 2.187 1.35 4.887.386 2.701-.064 5.98-.707 4.759-2.25 7.91-1.544 3.215-3.408 5.144-1.8 1.929-3.666 2.765-1.864.9-3.086 1.157-.965.193-2.315.322-1.286.193-2.765-.064-1.415-.193-2.894-.9-1.479-.644-2.636-2.058-1.35-1.608-2.122-3.473-.707-1.607-1.029-3.73-.386-2.057.322-4.307.514-.58 1.093-1.03.579-.45 1.157-.77.643-.387 1.35-.708.837-.257 1.673-.45.707-.129 1.478-.129.836-.064 1.544.193-.965 1.093-1.35 2.058-.258.514-.386.9-.258 1.222-.193 2.893.128 1.737.707 3.28.643 1.607 1.8 2.7 1.158 1.158 3.087 1.222 4.694.129 7.973-7.33 1.094-2.315 1.094-4.694.064-2.38-.58-4.566-.578-2.186-1.607-4.05-.964-1.93-1.993-3.28-1.029-1.35-2.508-2.894-1.415-1.607-2.83-3.472-1.414-1.865-2.571-4.051-1.093-2.186-1.48-4.758-.514-3.601.644-6.56 1.222-3.022 3.215-5.272 2.058-2.25 4.437-3.665 2.443-1.415 4.308-1.8 10.353-2.058 13.568 3.472 1.35 2.121 1.479 4.5.128 2.38-.322 4.438-.386 1.993-1.029 3.408-.578 1.35-.771 1.479-.386.385-1.222.835-.836.45-2.7.836-.515.129-1.03.129-.45 0-.964-.064-.514-.065-.9-.258zm19.019 27.329q1.993 0 4.372-1.543 2.444-1.608 4.694-3.73 2.315-2.122 4.18-4.308 1.929-2.25 2.894-3.601.578-.836 1.093-.965.514-.192.771.129.258.322.193 1.029-.064.643-.578 1.479-.45.771-1.544 2.25-1.029 1.415-2.508 3.151-1.414 1.672-3.279 3.473-1.8 1.736-3.794 3.215-1.993 1.414-4.115 2.315-2.122.964-4.18.964-2.83 0-4.758-1.093-1.865-1.029-3.022-2.7-1.094-1.673-1.544-3.666-.45-2.058-.45-4.051 0-1.993.9-4.951.9-2.958 2.637-5.659 1.8-2.765 4.501-4.694 2.7-1.993 6.366-1.993 2.058 0 3.472 1.414 1.48 1.415 1.415 3.858 0 1.158-.386 2.315-.386 1.093-1.029 1.994-.643.836-1.543 1.35-.836.514-1.865.514-.836 0-1.286-.578-.386-.643-.514-1.415-.064-.836 0-1.607.128-.772.257-1.03.322-.45.707-.642l.9-.45q.386-.193.58-.58.257-.385.257-.835 0-.45-.258-.772-.257-.321-.836-.321-.578 0-2.122.964-1.479.9-3.086 2.765-1.543 1.8-2.765 4.566-1.222 2.765-1.286 6.43-.064 2.122.579 3.472t1.607 2.122q.965.772 2.122 1.093 1.158.322 2.25.322zm46.411-10.61q-.9 1.286-2.314 3.215-1.415 1.865-2.958 3.794-1.48 1.865-2.958 3.472-1.415 1.544-2.38 2.187-.642.385-1.478.643-.836.257-1.737.321-.836.064-1.607-.128-.772-.129-1.35-.515-.58-.45-.965-1.286-.322-.707-.643-1.865-.257-1.157-.193-2.893-1.543 2.572-3.408 3.986-1.865 1.35-3.537 1.994-1.929.707-3.858.836-.9 0-1.929-.643-1.029-.579-1.736-1.865-.707-1.35-.9-3.408-.193-2.122.514-5.016.9-3.922 2.83-7.137 1.993-3.215 4.308-5.466 2.315-2.315 4.565-3.472 2.25-1.158 3.73-1.029 1.736.321 2.83 1.029.9.643 1.157 1.929.321 1.222-1.03 3.28.9-.194 1.48-.258.643-.064.964-.064.386 0 .515.064.064.129.064.579 0 .386-.193 1.479t-.579 2.958q-.386 1.864-1.029 4.822-.128.579-.257 1.093-.064.45-.193.965-.064.45-.193 1.093l-.321 1.608q-.064.578-.064 1.286.064.643.257 1.221.193.58.578.965.45.322 1.222.322.643 0 1.672-.772 1.029-.836 2.186-2.058 1.158-1.286 2.38-2.765 1.286-1.543 2.379-2.958 1.093-1.414 1.929-2.507.9-1.094 1.286-1.608.514-.579 1.029-.643.514-.129.771.257.258.386.065 1.158-.129.771-.9 1.8zm-18.84 2.83q.321-1.287.771-3.023.45-1.736.772-3.344.322-1.607.45-2.636.193-1.093-.064-1.029-.322.064-.707.193-.322.129-.836.193-.515.064-1.03.193.515-1.029.58-1.672.128-.707.064-1.093-.064-.45-.257-.707-.708-.58-2.508.964-1.736 1.48-4.051 5.53-.965 1.672-1.543 3.601-.58 1.865-.836 3.537-.193 1.672-.065 2.958.129 1.221.515 1.607.707.707 1.607.707.9-.064 1.8-.514.965-.514 1.865-1.286.965-.772 1.672-1.608.772-.835 1.222-1.543.515-.707.579-1.029zm34.065 11.574q-1.478 0-2.572-.579-1.028-.514-1.671-1.415-.643-.9-.836-2.057-.193-1.222.128-2.572.193-.9.643-2.38.45-1.543.9-3.279.515-1.8.9-3.537.45-1.8.58-3.215.128-1.479-.13-2.379-.256-.964-1.092-.964-1.03 0-2.122.707-1.093.643-2.25 1.8-1.094 1.158-2.251 2.701-1.094 1.479-2.187 3.087-.578 2.186-.964 3.858-.386 1.607-.708 2.958-.257 1.286-.514 2.315-.257.964-.45 1.864-.193.643-1.158 1.286-.964.58-2.057.965-1.093.386-1.865.386-.836 0-.707-.579.064-.386.45-1.736.321-1.35.836-3.151.45-1.865.964-3.922.515-2.058.965-3.923.321-1.479.707-3.28.322-1.543.772-3.6.514-2.058 1.157-4.501.45-.386.9-.58.515-.256 1.03-.385.514-.193 1.092-.257.515 0 1.03.064.45.064.9.257.514.129.9.45-.193.45-.45 1.287-.258.771-.515 1.671-.257 1.03-.643 2.122.836-1.157 1.865-2.315 1.093-1.221 2.315-2.186 1.286-.964 2.7-1.543 1.415-.643 2.894-.643 1.222 0 2.186.707.965.708 1.48 1.994.578 1.221.642 2.958.129 1.736-.45 3.793l-.707 2.83q-.322 1.35-.836 3.215-.45 1.8-1.157 3.987-.386 1.414-.322 2.443.129 1.029 1.286 1.029t2.894-1.415q1.8-1.414 3.6-3.408 1.801-1.993 3.409-4.05 1.607-2.123 2.443-3.409.579-.836 1.093-1.093.515-.257.772-.064.321.193.321.9 0 .643-.514 1.672-.45.9-1.415 2.379-.9 1.479-2.186 3.15-1.286 1.673-2.765 3.409-1.479 1.672-3.086 3.086-1.608 1.35-3.216 2.187-1.543.9-2.958.9z" aria-label="ShelfScan" font-family="Satisfy" font-size="65.846" letter-spacing=".436" style="line-height:1.25;-inkscape-font-specification:Satisfy;font-variant-ligatures:none" transform="translate(18.785 -108.48)"/>
</svg>
