<?xml version="1.0" encoding="UTF-8" standalone="no"?>
<!-- Created with Inkscape (http://www.inkscape.org/) -->

<svg
   width="340"
   height="340"
   viewBox="0 0 89.958329 89.958336"
   version="1.1"
   id="svg1"
   inkscape:version="1.4.3 (0d15f75, 2025-12-25)"
   sodipodi:docname="version-icon-b.svg"
   xmlns:inkscape="http://www.inkscape.org/namespaces/inkscape"
   xmlns:sodipodi="http://sodipodi.sourceforge.net/DTD/sodipodi-0.dtd"
   xmlns="http://www.w3.org/2000/svg"
   xmlns:svg="http://www.w3.org/2000/svg">
  <sodipodi:namedview
     id="namedview1"
     pagecolor="#ffffff"
     bordercolor="#666666"
     borderopacity="1.0"
     inkscape:showpageshadow="2"
     inkscape:pageopacity="0.0"
     inkscape:pagecheckerboard="0"
     inkscape:deskcolor="#d1d1d1"
     inkscape:document-units="mm"
     inkscape:zoom="0.89887065"
     inkscape:cx="234.739"
     inkscape:cy="224.17018"
     inkscape:window-width="2560"
     inkscape:window-height="1382"
     inkscape:window-x="1080"
     inkscape:window-y="280"
     inkscape:window-maximized="1"
     inkscape:current-layer="layer1" />
  <defs
     id="defs1" />
  <g
     inkscape:label="Layer 1"
     inkscape:groupmode="layer"
     id="layer1"
     transform="translate(-30.233213,-22.800046)">
    <path
       id="rect1"
       style="fill:#000000;fill-opacity:1;stroke:none;stroke-width:5.99999;stroke-linecap:round;stroke-linejoin:round;stroke-dashoffset:5.28;stroke-opacity:1;paint-order:markers fill stroke"
       d="M 37.712343 37.666839 L 37.712343 112.6664 L 112.71242 112.6664 L 112.71242 37.666839 L 37.712343 37.666839 z M 59.884633 46.597043 C 62.094449 46.597043 63.9097 47.044114 65.330296 47.938563 C 66.803506 48.780398 67.908733 49.648606 68.645339 50.543055 C 69.171485 51.174431 69.618556 51.806137 69.986859 52.437513 C 70.407776 53.068889 70.749563 53.831813 71.012636 54.726263 C 71.486168 56.462547 71.723187 59.040204 71.723187 62.460157 C 71.723187 64.4069 71.670286 65.985649 71.565057 67.195786 C 71.512444 68.405923 71.328325 69.405349 71.012636 70.194569 C 70.644333 71.036404 70.118428 71.746944 69.434438 72.325705 C 68.803062 72.904467 67.908403 73.535656 66.750881 74.219646 C 68.013633 75.008866 68.960675 75.745857 69.592051 76.429847 C 70.276042 77.113838 70.776013 77.902695 71.091701 78.797145 C 71.407389 79.744209 71.591507 80.875369 71.644122 82.190736 C 71.696735 83.453488 71.723187 85.08462 71.723187 87.083977 C 71.723187 88.925491 71.670286 90.451339 71.565057 91.661476 C 71.512444 92.871613 71.407676 93.871557 71.249831 94.660776 C 71.091987 95.502611 70.881418 96.212634 70.618345 96.791395 C 70.355272 97.370157 70.012968 97.975412 69.592051 98.606788 C 68.592372 100.08 67.303543 101.31644 65.725103 102.31612 C 64.199278 103.26318 62.173459 103.73671 59.647955 103.73671 C 58.385203 103.73671 57.043473 103.52614 55.622878 103.10522 C 54.202282 102.6843 52.913453 102.00022 51.75593 101.05315 C 50.598408 100.10609 49.624915 98.869642 48.835695 97.343816 C 48.09909 95.817991 47.730853 93.950356 47.730853 91.740541 L 47.730853 87.163042 L 55.781008 87.163042 L 55.781008 91.345733 C 55.781008 92.608485 56.122795 93.660812 56.806785 94.502646 C 57.54339 95.291866 58.516883 95.686553 59.72702 95.686553 C 60.937157 95.686553 61.8842 95.291866 62.56819 94.502646 C 63.304796 93.660812 63.673032 92.556101 63.673032 91.18812 L 63.673032 83.137965 C 63.673032 80.928149 63.251895 79.481135 62.41006 78.797145 C 61.936528 78.376227 61.278889 78.113275 60.437054 78.008046 C 59.647834 77.902816 58.595508 77.850433 57.280141 77.850433 L 57.280141 70.74699 C 59.700416 70.74699 61.357998 70.457587 62.252447 69.878826 C 63.199511 69.300065 63.673032 67.958852 63.673032 65.854266 L 63.673032 58.59321 C 63.673032 57.435687 63.304796 56.488645 62.56819 55.75204 C 61.8842 55.015434 60.937157 54.647198 59.72702 54.647198 C 58.306424 54.647198 57.280548 55.094269 56.649172 55.988718 C 56.070411 56.883167 55.781008 57.751375 55.781008 58.59321 L 55.781008 63.170708 L 47.730853 63.170708 L 47.730853 58.514145 C 47.730853 56.88309 48.046706 55.331309 48.678082 53.858099 C 49.309458 52.384888 50.177149 51.121993 51.282057 50.069699 C 52.386965 49.017406 53.676311 48.175648 55.149522 47.544272 C 56.622732 46.912896 58.200964 46.597043 59.884633 46.597043 z M 78.701572 47.070399 L 102.69391 47.070399 L 102.69391 54.647198 L 86.751727 54.647198 L 86.751727 71.141798 L 100.64235 71.141798 L 100.64235 78.71808 L 86.751727 78.71808 L 86.751727 95.213197 L 102.69391 95.213197 L 102.69391 103.26283 L 78.701572 103.26283 L 78.701572 47.070399 z " />
    <path
       id="rect4"
       style="stroke-width:6.59297;stroke-linecap:round;stroke-linejoin:round;stroke-dashoffset:5.28;paint-order:markers fill stroke"
       d="m 37.71226,30.300244 h 75.00004 l -5,-7.500087 -65.00065,-1.11e-4 z"
       sodipodi:nodetypes="ccccc" />
  </g>
</svg>
