<svg xmlns="http://www.w3.org/2000/svg" viewBox="0 0 270.933 270.933">
  <path d="M50.747 195.878c.024-.1.031-.203.056-.304a54.974 54.974 0 0 1 1.695-5.653l.002-.006.964-2.68 1.956-2.063a46.6 46.6 0 0 1 2.98-2.877 43.768 43.768 0 0 1 3.225-2.587 48.713 48.713 0 0 1 3.04-2.04 46.958 46.958 0 0 1 3.138-1.777 66.585 66.585 0 0 1 3.143-1.62 61.155 61.155 0 0 1 3.27-1.46l.83-.342.858-.226a.015.015 0 0 1 .006-.002l.01-.002c2.452-.649 4.91-1.205 7.375-1.666l.06-.01.337-.059.263-.035c.59-.08 1.176-.099 1.764-.15-.779-.915-1.571-1.812-2.3-2.788a61.473 61.473 0 0 1-3.166-4.677 66.598 66.598 0 0 1-2.797-5.049 71.482 71.482 0 0 1-2.411-5.38 75.876 75.876 0 0 1-2.008-5.67 79.578 79.578 0 0 1-1.59-5.916 82.435 82.435 0 0 1-1.153-6.123 85.5 85.5 0 0 1 1.362-32.246 83.63 83.63 0 0 1 1.816-6.484l15.605-43.392c.18-.5.258-.934.252-1.31a1.937 1.937 0 0 0-.25-.962 1.919 1.919 0 0 0-.645-.654 3.222 3.222 0 0 0-.935-.386 5.732 5.732 0 0 0-1.122-.159 8.649 8.649 0 0 0-1.2.029 9.721 9.721 0 0 0-2.218.462L7.008 75.804a4.837 4.837 0 0 0-1.648.969 4.82 4.82 0 0 0-1.333 5.15L10.22 99.88a4.838 4.838 0 0 0 1.009 1.69 4.799 4.799 0 0 0 1.536 1.114 4.84 4.84 0 0 0 1.847.435 4.777 4.777 0 0 0 1.939-.34l30.855-12.337a99.233 99.233 0 0 0-8.937 19.673 99.077 99.077 0 0 0-4.94 31.565 99.116 99.116 0 0 0 2.463 21.31 99.094 99.094 0 0 0 2.987 10.45 106.06 106.06 0 0 0 1.522 4.138 93.74 93.74 0 0 0 1.592 3.815 78.251 78.251 0 0 0 3.357 6.711 62.138 62.138 0 0 0 3.531 5.572c.582.815 1.177 1.467 1.766 2.202zM214.656 78.79c-.14.427-.263.872-.408 1.291a68.379 68.379 0 0 1-1.463 3.853 59.003 59.003 0 0 1-1.662 3.654c-.852 1.794-1.614 3.328-2.404 4.72a25.62 25.62 0 0 1-1.463 2.319c.21-.295-.304.387-1.159 1.321-.428.467-.941.997-1.491 1.5-.55.502-1.138.978-1.716 1.335l1.09-.789a30.271 30.271 0 0 1-3.347 2.43 40.596 40.596 0 0 1-3.66 2.035c-1.054.52-2.12.971-3.207 1.368-1.086.397-2.193.74-3.327 1.044-1.135.304-2.297.57-3.494.811-1.196.243-2.428.462-3.7.673-.504.103-1.023.14-1.533.218a56.406 56.406 0 0 1 3.45 4.18 61.477 61.477 0 0 1 3.167 4.677 66.6 66.6 0 0 1 2.796 5.05 71.473 71.473 0 0 1 2.411 5.38 75.881 75.881 0 0 1 2.009 5.669 79.577 79.577 0 0 1 1.589 5.917 82.436 82.436 0 0 1 1.153 6.123c.31 2.07.544 4.168.7 6.286a85.5 85.5 0 0 1-.025 12.901 84.674 84.674 0 0 1-2.038 13.059 83.629 83.629 0 0 1-1.815 6.483l-15.605 43.393c-.18.499-.257.933-.252 1.31.005.376.094.694.25.961.154.267.375.483.645.655.27.17.587.297.936.386.349.088.728.139 1.12.158.394.02.8.008 1.201-.029a9.72 9.72 0 0 0 2.218-.461l75.952-26.19a4.833 4.833 0 0 0 1.647-.97 4.82 4.82 0 0 0 1.333-5.149l-6.192-17.957a4.837 4.837 0 0 0-1.01-1.692 4.796 4.796 0 0 0-1.536-1.113 4.839 4.839 0 0 0-1.846-.435 4.772 4.772 0 0 0-1.94.341l-30.854 12.337a99.246 99.246 0 0 0 8.936-19.673 99.083 99.083 0 0 0 4.94-31.566 99.187 99.187 0 0 0-2.463-21.31 99.08 99.08 0 0 0-2.987-10.45 106.085 106.085 0 0 0-1.522-4.137 93.742 93.742 0 0 0-1.591-3.815 78.25 78.25 0 0 0-3.358-6.712 62.136 62.136 0 0 0-3.53-5.572 50.31 50.31 0 0 0-3.635-4.533c-.436-.482-.873-.842-1.31-1.284z" style="fill:#202020;stroke-width:.264582"/>
  <path d="M105.004 258.7c-.083.004-.136.017-.219.021l.11-.006.107-.01.045-.006h-.043zM92.893 257.82l.06.013.034.008.035.008.062.012c-.03-.006-.059-.02-.088-.025-.035-.008-.069-.007-.103-.016z" style="-inkscape-font-specification:Satisfy;fill:#fff"/>
  <g style="fill:#64005a;fill-opacity:1">
    <path d="M169.67 91.776c-.136-.512.413-1.749 1.65-3.71 1.244-2.128 2.591-4.672 4.04-7.633 1.62-3.121 3.175-6.582 4.666-10.383a54.736 54.736 0 0 0 3.536-12.21 41.11 41.11 0 0 0 .63-12.606c-.44-4.235-1.942-8.354-4.507-12.358-1.522-2.098-3.9-3.312-7.137-3.642-3.066-.49-6.66-.163-10.783.979-3.953.982-8.186 2.709-12.7 5.18a61.364 61.364 0 0 0-12.135 8.493 55.867 55.867 0 0 0-9.814 10.885c-2.643 4.08-4.236 8.298-4.778 12.652-.5 3.514-.583 6.796-.248 9.846.498 3.058 1.171 5.872 2.019 8.442a69.968 69.968 0 0 0 2.811 7.217 146.474 146.474 0 0 0 2.874 5.957c1.18 2.418 3.079 5.125 5.694 8.12 2.616 2.995 5.453 6.423 8.514 10.283 3.068 3.692 6.112 7.888 9.13 12.588 3.018 4.7 5.601 9.969 7.75 15.805 2.148 5.837 3.533 12.31 4.154 19.418.621 7.108.15 14.92-1.413 23.436-2.406 12.35-5.76 22.546-10.066 30.588-4.313 8.21-8.947 14.719-13.904 19.527-4.794 4.816-9.598 8.2-14.412 10.15-4.823 2.118-8.792 3.436-11.908 3.955-2.459.383-5.4.657-8.824.823-3.27.343-6.753.085-10.451-.774-3.544-.682-7.136-2.041-10.775-4.076-3.648-1.867-6.84-4.723-9.575-8.566-3.197-4.373-5.648-9.045-7.351-14.017-1.575-4.29-2.63-9.23-3.164-14.818-.705-5.427-.019-11.038 2.06-16.832a31.546 31.546 0 0 1 4.338-3.828 34.222 34.222 0 0 1 4.531-2.807 50.172 50.172 0 0 1 5.25-2.518 88.98 88.98 0 0 1 6.414-1.45 30.237 30.237 0 0 1 5.623-.224c2.117-.063 4.052.286 5.803 1.048-2.577 2.736-4.414 5.34-5.514 7.813-.716 1.312-1.261 2.465-1.636 3.457-.808 3.161-1.24 6.931-1.296 11.31.098 4.554.776 8.885 2.035 12.992 1.413 4.283 3.508 7.926 6.286 10.93 2.769 3.171 6.583 4.962 11.442 5.373 11.826.927 22.363-8.152 31.61-27.237 3.06-5.914 4.745-11.98 5.056-18.2.472-6.211.04-12.215-1.297-18.01-1.175-5.789-2.939-11.185-5.291-16.189-2.182-5.164-4.483-9.576-6.903-13.235-2.42-3.66-5.394-7.6-8.924-11.82-3.36-4.38-6.703-9.097-10.029-14.15-3.326-5.052-6.306-10.509-8.941-16.37-2.473-5.852-4.028-12.165-4.666-18.937-.828-9.478.41-18.01 3.717-25.596 3.476-7.747 7.876-14.436 13.2-20.068 5.484-5.624 11.32-10.136 17.508-13.534 6.35-3.39 11.902-5.472 16.657-6.246 26.389-4.076 43.278 1.317 50.669 16.178 3.13 5.717 4.702 11.693 4.716 17.928.014 6.236-.68 12.015-2.085 17.337-1.233 5.162-2.753 9.552-4.56 13.169-1.637 3.457-2.706 5.341-3.21 5.653-1.024.96-2.62 1.976-4.787 3.047-2.168 1.072-5.63 1.994-10.385 2.768a15.5 15.5 0 0 1-3.919.31 28.54 28.54 0 0 1-3.637-.434c-1.29-.233-2.409-.626-3.357-1.179z" style="color:#000;-inkscape-font-specification:Satisfy;fill:#64005a;fill-opacity:1;-inkscape-stroke:none"/>
    <path d="M168.373 11.51c-5.726-.174-11.985.287-18.787 1.338l-.018.004-.017.002c-5.423.882-11.344 3.152-17.961 6.685l-.022.012-.021.013c-6.585 3.617-12.753 8.395-18.494 14.282l-.022.023-.023.026c-5.67 5.999-10.33 13.102-13.979 21.232l-.01.021-.01.02c-3.613 8.291-4.929 17.583-4.05 27.64l.002.014.002.014c.675 7.164 2.33 13.911 4.978 20.18l.018.043.02.043c2.72 6.052 5.81 11.708 9.265 16.959 3.377 5.13 6.776 9.928 10.203 14.396l.055.07.057.069c3.45 4.124 6.331 7.946 8.642 11.441 2.239 3.386 4.434 7.574 6.537 12.553l.031.076.038.076c2.201 4.684 3.861 9.753 4.974 15.237l.012.054.012.055c1.238 5.37 1.643 10.934 1.2 16.748l-.003.055-.002.055c-.28 5.599-1.782 11.047-4.592 16.478l-.025.049-.024.049c-4.464 9.214-9.173 15.787-13.799 19.773-4.62 3.982-8.942 5.477-13.687 5.11-4.015-.342-6.597-1.63-8.623-3.95l-.04-.045-.04-.045c-2.335-2.523-4.117-5.591-5.364-9.355-1.126-3.689-1.741-7.59-1.836-11.746.057-3.982.457-7.315 1.118-9.992.283-.72.69-1.62 1.296-2.73l.083-.151.07-.156c.838-1.886 2.385-4.148 4.732-6.641l4.094-4.348-5.477-2.382c-2.311-1.006-4.85-1.44-7.449-1.383-2.124-.096-4.203-.025-6.22.252l-.102.013-.102.018a93.153 93.153 0 0 0-6.716 1.518l-.268.07-.256.105a54.383 54.383 0 0 0-5.61 2.694 38.404 38.404 0 0 0-5.042 3.119 35.76 35.76 0 0 0-4.916 4.336l-.608.64-.298.83c-2.262 6.306-3.059 12.607-2.276 18.725.563 5.831 1.67 11.086 3.381 15.758 1.84 5.35 4.485 10.385 7.902 15.062 3.046 4.272 6.738 7.613 11.018 9.815 3.92 2.181 7.882 3.696 11.871 4.472 4.033.928 7.947 1.234 11.697.848 3.446-.172 6.478-.445 9.086-.851l.024-.002.021-.004c3.664-.61 7.856-2.043 12.832-4.225 5.46-2.22 10.683-5.954 15.756-11.047 5.36-5.209 10.204-12.064 14.656-20.537 4.57-8.541 8.016-19.116 10.477-31.752l.006-.021.004-.024c1.619-8.817 2.127-17.003 1.467-24.56-.65-7.428-2.103-14.27-4.397-20.502-2.242-6.092-4.957-11.64-8.158-16.623-3.096-4.821-6.234-9.152-9.428-12.995-.003-.003-.003-.007-.006-.01-3.068-3.868-5.93-7.325-8.58-10.36-2.453-2.81-4.14-5.267-5.084-7.2l-.02-.04-.019-.038a142.502 142.502 0 0 1-2.79-5.785 65.808 65.808 0 0 1-2.641-6.786c-.76-2.3-1.371-4.873-1.836-7.697-.279-2.622-.218-5.508.234-8.681l.004-.038.006-.035c.457-3.666 1.786-7.236 4.11-10.838a51.61 51.61 0 0 1 9.038-10.021l.04-.033.037-.035a57.128 57.128 0 0 1 11.306-7.916l.022-.012.021-.012c4.268-2.335 8.182-3.913 11.697-4.787l.055-.014.055-.015c3.716-1.03 6.724-1.243 8.998-.88l.12.02.116.012c2.356.24 3.353.876 4.1 1.873 2.203 3.48 3.431 6.896 3.793 10.383.396 3.814.209 7.57-.565 11.326l-.015.078-.014.078a50.5 50.5 0 0 1-3.267 11.276l-.02.045-.018.045c-1.444 3.683-2.94 7.012-4.482 9.982l-.023.045-.022.043c-1.415 2.891-2.72 5.352-3.894 7.361l.074-.12c-.681 1.079-1.21 1.997-1.625 2.93-.415.934-1.178 1.68-.53 4.104l-.142-1.086v2.414l2.084 1.215c1.442.841 3.043 1.38 4.726 1.684 1.444.26 2.832.429 4.174.496a19.756 19.756 0 0 0 4.957-.39c4.872-.8 8.551-1.7 11.418-3.118 2.074-1.025 3.719-2.051 5.137-3.242 1.17-.724 1.353-1.186 1.687-1.652.335-.467.621-.94.934-1.49.616-1.086 1.316-2.476 2.143-4.221 1.982-3.972 3.58-8.633 4.865-13.998 1.501-5.706 2.23-11.84 2.215-18.377-.016-6.903-1.784-13.591-5.19-19.844-4.177-8.36-11.34-14.29-20.658-17.266-4.67-1.49-9.864-2.302-15.59-2.476zm-.273 8.414c5.093.155 9.534.86 13.308 2.064 7.55 2.41 12.51 6.59 15.727 13.059l.037.074.039.072c2.822 5.156 4.189 10.387 4.201 15.922.013 5.918-.647 11.329-1.947 16.256l-.012.047-.012.049c-1.177 4.927-2.611 9.023-4.232 12.267l-.02.04-.019.04c-.793 1.676-1.442 2.946-1.887 3.729a9.51 9.51 0 0 1-.404.66c-.514.482-1.817 1.376-3.771 2.342-1.435.709-4.646 1.648-9.198 2.389l-.088.013-.086.018a11.26 11.26 0 0 1-2.86.228c-.396-.02-.887-.11-1.321-.158 1.13-1.995 2.29-4.13 3.543-6.687 1.687-3.253 3.288-6.826 4.816-10.717a58.973 58.973 0 0 0 3.77-13.006 45.377 45.377 0 0 0 .685-13.824c-.511-4.934-2.279-9.711-5.148-14.19l-.065-.103-.072-.098c-2.264-3.121-5.96-4.885-9.969-5.326-3.817-.593-7.949-.162-12.423 1.072-4.366 1.092-8.895 2.955-13.63 5.545a65.606 65.606 0 0 0-12.88 9.012 60.121 60.121 0 0 0-10.524 11.676l-.035.049-.03.05c-2.94 4.536-4.788 9.378-5.417 14.395-.536 3.792-.638 7.412-.26 10.846l.012.107.018.107c.528 3.247 1.247 6.274 2.173 9.082a74.175 74.175 0 0 0 2.983 7.653 150.677 150.677 0 0 0 2.918 6.05c.002.005.006.009.008.012 1.417 2.899 3.523 5.85 6.297 9.028 2.561 2.933 5.36 6.31 8.386 10.128l.03.04.03.037c2.942 3.538 5.888 7.597 8.827 12.173 2.836 4.417 5.288 9.406 7.342 14.987 2.003 5.44 3.319 11.543 3.912 18.332.581 6.652.147 14.084-1.357 22.289-2.348 12.046-5.605 21.85-9.64 29.387l-.007.013-.008.016c-4.162 7.923-8.575 14.065-13.111 18.465l-.026.025-.027.027c-4.499 4.52-8.863 7.538-13.012 9.22l-.056.023-.057.025c-4.627 2.033-8.346 3.229-10.895 3.654-2.252.35-5.045.613-8.35.774l-.116.006-.118.011c-2.745.288-5.752.082-9.064-.687l-.078-.018-.078-.015c-3.045-.587-6.213-1.768-9.52-3.617l-.066-.04-.069-.035c-2.986-1.528-5.657-3.874-8.068-7.261l-.016-.022-.015-.023c-2.96-4.047-5.203-8.332-6.768-12.899l-.015-.043-.016-.04c-1.425-3.883-2.419-8.473-2.926-13.772l-.006-.07-.01-.07c-.578-4.452-.003-9.091 1.64-14.018.997-.987 2.005-1.936 3.064-2.706a30.046 30.046 0 0 1 3.972-2.464l.065-.032.06-.035a45.99 45.99 0 0 1 4.584-2.197c1.903-.497 3.8-.93 5.692-1.287.977-.131 2.045-.107 3.093-.12-.576.94-1.2 1.873-1.628 2.829-.717 1.332-1.324 2.572-1.766 3.744l-.082.219-.059.224c-.918 3.59-1.367 7.673-1.426 12.297l-.002.073.002.072c.106 4.914.842 9.639 2.22 14.133l.013.04.014.044c1.57 4.763 3.964 8.953 7.156 12.418 3.509 3.991 8.53 6.274 14.205 6.753l.014.002.013.002c7.075.555 13.931-2.028 19.842-7.12 5.898-5.083 11.07-12.573 15.844-22.413 3.289-6.368 5.148-13.022 5.496-19.83.494-6.572.038-12.98-1.385-19.17-1.231-6.043-3.083-11.722-5.562-17.01-2.25-5.31-4.643-9.92-7.229-13.832-2.528-3.823-5.594-7.882-9.205-12.199l.11.139c-3.293-4.293-6.577-8.927-9.852-13.902-3.187-4.841-6.052-10.084-8.596-15.735-2.287-5.424-3.736-11.288-4.336-17.65l-.002-.008c-.771-8.875.388-16.63 3.375-23.498 3.3-7.348 7.433-13.611 12.399-18.87 5.215-5.34 10.706-9.573 16.478-12.745 6.063-3.234 11.232-5.122 15.31-5.787 6.384-.985 12.124-1.38 17.212-1.225zm5.789 72.12c-.047.285-.147.298-.07.126.008-.02.059-.101.07-.125z" style="color:#000;-inkscape-font-specification:Satisfy;fill:#64005a;fill-opacity:1;-inkscape-stroke:none"/>
  </g>
</svg>
