<?xml version="1.0" encoding="UTF-8" standalone="no"?>
<!-- Created with Inkscape (http://www.inkscape.org/) -->

<svg
   width="247.84079mm"
   height="79.814667mm"
   viewBox="0 0 247.84079 79.814667"
   version="1.1"
   id="svg1"
   inkscape:version="1.3 (0e150ed, 2023-07-21)"
   sodipodi:docname="wordmark.svg"
   inkscape:export-filename="wordmark.png"
   inkscape:export-xdpi="61.491089"
   inkscape:export-ydpi="61.491089"
   xmlns:inkscape="http://www.inkscape.org/namespaces/inkscape"
   xmlns:sodipodi="http://sodipodi.sourceforge.net/DTD/sodipodi-0.dtd"
   xmlns="http://www.w3.org/2000/svg"
   xmlns:svg="http://www.w3.org/2000/svg">
  <sodipodi:namedview
     id="namedview1"
     pagecolor="#ffffff"
     bordercolor="#666666"
     borderopacity="1.0"
     inkscape:showpageshadow="2"
     inkscape:pageopacity="0.0"
     inkscape:pagecheckerboard="0"
     inkscape:deskcolor="#d1d1d1"
     inkscape:document-units="mm"
     inkscape:zoom="0.2102413"
     inkscape:cx="468.50928"
     inkscape:cy="152.20606"
     inkscape:window-width="1312"
     inkscape:window-height="449"
     inkscape:window-x="0"
     inkscape:window-y="260"
     inkscape:window-maximized="0"
     inkscape:current-layer="layer1" />
  <defs
     id="defs1" />
  <g
     inkscape:label="Layer 1"
     inkscape:groupmode="layer"
     id="layer1"
     transform="translate(18.785418,-108.47916)">
    <path
       d="m 7.8433159,127.81346 q -0.064302,-0.19291 0.3858141,-0.96454 0.4501164,-0.83593 0.9645351,-1.99337 0.578721,-1.22174 1.0931399,-2.7007 0.578721,-1.54325 0.771628,-3.15081 0.257209,-1.60756 0,-3.21512 -0.257209,-1.60756 -1.3503492,-3.08651 -0.6430234,-0.77163 -1.9290702,-0.83593 -1.2217445,-0.12861 -2.829303,0.38581 -1.5432561,0.45012 -3.2794193,1.47896 -1.67186085,0.96453 -3.0865123,2.31488 -1.4146515,1.28605 -2.443489,2.8936 -0.9645351,1.60756 -1.0931397,3.27942 -0.1286047,1.35035 0.064302,2.5078 0.2572094,1.15744 0.6430234,2.12197 0.385814,0.96454 0.8359304,1.80047 0.4501164,0.83593 0.8359304,1.47895 0.5144188,0.90023 1.60755854,1.99337 1.09313979,1.09314 2.37918656,2.5078 1.2860468,1.35034 2.5720936,3.08651 1.2860468,1.73616 2.2505819,3.92244 0.9645351,2.18628 1.3503492,4.88698 0.385814,2.7007 -0.064302,5.98012 -0.7073257,4.75837 -2.2505819,7.90918 -1.5432561,3.21512 -3.408024,5.14419 -1.80046551,1.92907 -3.6652334,2.765 -1.8647678,0.90023 -3.0865123,1.15744 -0.9645351,0.19291 -2.3148843,0.32152 -1.2860468,0.1929 -2.7650006,-0.0643 -1.4146518,-0.1929 -2.8936058,-0.90023 -1.478953,-0.64302 -2.636396,-2.05767 -1.350349,-1.60756 -2.121977,-3.47233 -0.707325,-1.60756 -1.028837,-3.72954 -0.385814,-2.05767 0.321512,-4.30825 0.514418,-0.57872 1.093139,-1.02884 0.578721,-0.45012 1.157442,-0.77163 0.643024,-0.38581 1.35035,-0.70732 0.83593,-0.25721 1.67186,-0.45012 0.707326,-0.12861 1.478954,-0.12861 0.835931,-0.0643 1.543256,0.19291 -0.964535,1.09314 -1.350349,2.05768 -0.257209,0.51442 -0.385814,0.90023 -0.257209,1.22174 -0.192907,2.8936 0.128605,1.73617 0.707326,3.27942 0.643023,1.60756 1.8004655,2.7007 1.1574422,1.15744 3.0865124,1.22175 4.6940708,0.1286 7.9734901,-7.33047 1.0931398,-2.31488 1.0931398,-4.69407 0.064302,-2.37919 -0.578721,-4.56547 -0.5787211,-2.18628 -1.60755853,-4.05104 -0.96453511,-1.92907 -1.99337257,-3.27942 -1.0288374,-1.35035 -2.5077912,-2.89361 -1.4146515,-1.60756 -2.829303,-3.47233 -1.4146515,-1.86476 -2.5720936,-4.05104 -1.0931399,-2.18628 -1.4789539,-4.75838 -0.514419,-3.60093 0.643023,-6.55883 1.2217449,-3.02221 3.2151175,-5.2728 2.0576749,-2.25058 4.4368614,-3.66523 2.44348897,-1.41465 4.3082568,-1.80047 10.3526763,-2.05767 13.5677933,3.47233 1.35035,2.12198 1.478954,4.50116 0.128605,2.37919 -0.321511,4.43687 -0.385815,1.99337 -1.028838,3.40802 -0.578721,1.35035 -0.771628,1.47895 -0.385814,0.38582 -1.221744,0.83593 -0.835931,0.45012 -2.700699,0.83593 -0.514418,0.12861 -1.0288371,0.12861 -0.4501164,0 -0.9645351,-0.0643 -0.5144187,-0.0643 -0.9002328,-0.25721 z m 41.2675261,15.36826 q 0.450117,-0.51442 0.900233,-0.51442 0.514419,-0.0643 0.771628,0.25721 0.321512,0.25721 0.257209,0.83593 0,0.57872 -0.514418,1.28604 -1.221745,1.67187 -2.829303,3.47233 -1.607559,1.73616 -3.472327,3.40803 -1.800465,1.67186 -3.665233,3.15081 -1.864768,1.47895 -3.600931,2.44349 -1.92907,1.09314 -3.279419,1.09314 -1.286047,0 -2.572094,-1.67186 -1.157442,-1.47896 -1.157442,-3.15082 0.0643,-1.73616 0.771628,-4.30825 0.450116,-1.60756 1.221744,-3.79384 0.835931,-2.25058 1.286047,-4.30826 0.514419,-2.05767 0.321512,-3.47232 -0.192907,-1.47896 -1.671861,-1.47896 -1.028837,0 -2.250582,0.70733 -1.157442,0.70732 -2.379186,1.86476 -1.157442,1.09314 -2.250582,2.5078 -1.09314,1.41465 -1.92907,2.765 -0.514419,2.50779 -1.028838,4.95128 -0.450116,2.05767 -0.964535,4.50116 -0.450116,2.37919 -0.900233,4.24396 -0.385814,0.32151 -0.83593,0.45011 -0.450117,0.12861 -0.835931,0.12861 -0.450116,0 -0.900232,-0.0643 -0.514419,-0.1286 -0.964535,-0.38581 -0.385815,-0.25721 -0.771629,-0.70733 -0.385814,-0.38581 -0.578721,-1.09314 2.893606,-11.89593 4.565467,-19.09779 1.67186,-7.20186 2.572093,-10.9957 1.028838,-4.50116 1.414652,-6.23733 0.192907,-1.22174 0.321511,-2.37918 0.128605,-1.02884 0.128605,-2.12198 0,-1.09314 -0.192907,-1.99337 0.514419,-0.32152 1.09314,-0.51442 0.643023,-0.19291 1.221744,-0.32151 0.707326,-0.19291 1.414652,-0.32152 0.707325,-0.1286 1.286047,-0.1286 0.514418,0 0.964535,0.1286 0.450116,0.0643 0.578721,0.38582 0.385814,0.32151 0.321511,1.28604 0,0.96454 -0.128604,1.99338 -0.25721,1.22174 -0.578721,2.63639 -1.35035,5.20849 -3.02221,10.15977 -1.671861,4.88698 -3.086513,10.48128 0.835931,-1.28604 1.993373,-2.63639 1.157442,-1.35035 2.507791,-2.44349 1.414652,-1.15744 2.957908,-1.86477 1.543256,-0.77163 3.279419,-0.77163 0.900233,0 1.671861,0.32152 0.83593,0.2572 1.414651,0.96453 0.643024,0.64302 0.964536,1.80047 0.321511,1.09314 0.257209,2.765 0,1.02883 -0.257209,2.12197 -0.192907,1.09314 -0.578722,2.44349 -0.385814,1.28605 -1.028837,2.89361 -0.578721,1.60756 -1.414651,3.72953 -0.578722,1.47896 -0.900233,2.50779 -0.321512,1.02884 0.128604,1.80047 0.578722,1.02884 2.250582,0.51442 1.736164,-0.57872 5.144188,-3.34372 0.771628,-0.64303 1.736163,-1.60756 0.964535,-0.96454 1.864768,-1.92907 0.900232,-1.02884 1.67186,-1.92907 0.771629,-0.90023 1.286047,-1.41465 z m 27.05671,0.77163 q -1.92907,2.8293 -4.372559,5.53 -2.443489,2.63639 -5.208489,4.75837 -2.700699,2.05767 -5.594304,3.34372 -2.829303,1.28605 -5.530001,1.28605 -1.414652,0 -3.086512,-0.70733 -1.607559,-0.64302 -2.957908,-2.05767 -1.350349,-1.41465 -2.18628,-3.66524 -0.771628,-2.25058 -0.450116,-5.46569 0.257209,-2.6364 1.607558,-5.53001 1.414652,-2.9579 3.408025,-5.40139 2.057674,-2.44349 4.565466,-4.05105 2.572093,-1.60756 5.144187,-1.60756 2.443489,0 3.536629,1.22175 1.093139,1.22174 0.964535,3.02221 -0.192907,1.99337 -1.157442,3.66523 -0.900233,1.67186 -2.18628,3.02221 -1.286047,1.35035 -2.765001,2.44349 -1.414651,1.09314 -2.700698,1.99337 -1.414651,0.96454 -2.700698,1.86477 -1.286047,0.83593 -2.250582,1.54325 0.0643,1.60756 0.578721,2.7007 0.514419,1.09314 1.286047,1.80047 0.771628,0.64302 1.736163,0.96453 1.028837,0.25721 2.057675,0.25721 2.186279,0 4.565466,-1.35035 2.379187,-1.41465 4.629768,-3.34372 2.314885,-1.99337 4.243955,-4.11535 1.993372,-2.12197 3.279419,-3.66523 0.450117,-0.51442 0.900233,-0.57872 0.514419,-0.12861 0.771628,0.1286 0.321512,0.19291 0.321512,0.77163 0,0.51442 -0.450117,1.22175 z m -16.461399,-9.90257 q -0.771628,0 -1.864768,0.77163 -1.028837,0.77163 -2.057674,2.25058 -1.028838,1.41466 -1.929071,3.53663 -0.900232,2.05768 -1.350349,4.75838 0.771628,-0.57872 1.671861,-1.15745 0.900233,-0.64302 1.800466,-1.35034 2.765,-2.12198 3.85814,-3.72954 1.09314,-1.60756 1.221744,-2.765 0.128605,-1.22175 -0.257209,-1.73616 -0.385814,-0.57873 -1.09314,-0.57873 z m 11.302642,22.24861 q 2.829303,-11.89593 4.501164,-19.09779 1.736163,-7.20186 2.636396,-10.9957 1.028838,-4.50116 1.414652,-6.23733 0.192907,-1.22174 0.321511,-2.37918 0.128605,-1.02884 0.128605,-2.12198 0,-1.09314 -0.192907,-1.99337 0.514419,-0.32152 1.09314,-0.51442 0.643023,-0.19291 1.221744,-0.32151 0.707326,-0.19291 1.414652,-0.32152 0.707325,-0.1286 1.286047,-0.1286 0.514418,0 0.964535,0.1286 0.450116,0.0643 0.578721,0.38582 0.385814,0.32151 0.321511,1.28604 0,0.96454 -0.128604,1.99338 -0.25721,1.22174 -0.578721,2.63639 -0.771628,2.765 -2.121978,7.97349 -1.157442,4.43686 -3.150814,12.08884 -1.92907,7.65198 -4.886978,19.29071 -0.321512,0.32151 -0.771628,0.45011 -0.450117,0.12861 -0.835931,0.12861 -0.450116,0 -0.964535,-0.0643 -0.450116,-0.1286 -0.900232,-0.38581 -0.385815,-0.25721 -0.771629,-0.70733 -0.385814,-0.38581 -0.578721,-1.09314 z m 17.089846,-5.6586 q -0.707326,-0.70733 -1.028837,-1.35035 -0.25721,-0.70733 -0.385814,-1.35035 -0.128605,-0.70733 0,-1.41465 0.257209,-0.90023 0.771628,-1.67186 0.450116,-0.70733 1.221744,-1.41465 0.771628,-0.77163 2.057675,-1.41466 0.835931,-2.05767 1.478954,-4.30825 0.707326,-2.31489 1.221744,-4.17965 0.578722,-2.18628 1.028838,-4.37256 1.607558,-5.4657 1.671861,-8.87373 0.0643,-3.47232 -0.128605,-4.56546 -0.0643,-0.45012 -0.128605,-0.90024 -0.128604,-0.38581 -0.257209,-0.83593 -0.0643,-0.51441 -0.192907,-0.96453 0.707326,-0.38581 1.221744,-0.64302 0.578722,-0.25721 0.964536,-0.38582 0.450116,-0.19291 0.83593,-0.25721 1.478954,-0.32151 2.765002,-0.32151 1.35035,-0.0643 1.47895,0.45012 0.0643,0.32151 0.12861,1.15744 0.1286,0.83593 0.1286,2.05767 0,1.22175 -0.19291,2.765 -0.1929,1.47896 -0.70732,3.15082 -0.45012,1.47895 -1.22175,4.11535 -0.70732,2.25058 -1.864763,6.04442 -1.157442,3.72954 -3.02221,9.58105 1.92907,-0.64303 4.243953,-1.22175 2.31489,-0.57872 4.69407,-0.96453 2.44349,-0.38582 4.82268,-0.57872 2.44349,-0.19291 4.50116,-0.0643 0.38582,0 0.51442,0.38581 0.19291,0.32151 0,0.70732 -0.1286,0.38582 -0.70733,0.77163 -0.51441,0.32151 -1.54325,0.38582 -1.28605,0.1286 -2.8293,0.32151 -1.54326,0.1286 -3.21512,0.45012 -1.60756,0.2572 -3.21512,0.70732 -1.60756,0.38581 -3.02221,0.96454 -1.093139,0.38581 -2.186278,0.77162 -0.900233,0.32152 -1.929071,0.77163 -0.964535,0.38582 -1.607558,0.70733 l -1.478954,4.69407 q 3.729536,2.63639 5.722908,5.4014 2.057673,2.765 2.957903,5.07988 1.09314,2.7007 1.22175,5.27279 0,2.8293 -0.83593,5.65861 -0.83593,2.8936 -2.250583,5.4657 -1.350349,2.63639 -3.215117,4.88697 -1.800465,2.25059 -3.85814,3.85815 -1.993373,1.60755 -4.11535,2.44348 -2.057675,0.83593 -3.922443,0.64303 -1.350349,-0.12861 -2.250582,-0.90024 -0.900232,-0.70732 -1.350349,-1.86476 -0.450116,-1.09314 -0.514419,-2.50779 -0.0643,-1.35035 0.25721,-2.7007 0.257209,-1.35035 1.09314,-5.01559 0.707325,-3.08651 2.186279,-9.00232 1.478954,-5.85152 3.986745,-15.62547 z m 3.793838,3.02221 q -0.900232,3.21512 -1.607558,5.91581 -0.643024,2.7007 -1.09314,4.75838 -0.578721,2.37918 -0.900233,4.30825 -0.578721,2.44349 -1.221744,4.82268 -0.578721,2.37919 -0.900233,4.24395 -0.385814,1.92907 -0.321512,3.08652 0.0643,1.15744 0.835931,1.15744 1.864768,0.1286 3.85814,-1.47896 2.057675,-1.54325 3.729536,-3.98674 1.671861,-2.37919 2.765,-5.20849 1.09314,-2.765 1.09314,-5.14419 0,-2.63639 -0.83593,-5.20849 -0.578721,-1.35035 -1.350349,-2.63639 -0.707326,-1.09314 -1.736163,-2.31489 -0.964536,-1.28604 -2.314885,-2.31488 z m 40.367291,-25.84954 q -0.0643,-0.19291 0.38582,-0.96454 0.45011,-0.83593 0.96453,-1.99337 0.57872,-1.22174 1.09314,-2.7007 0.57872,-1.54325 0.77163,-3.15081 0.25721,-1.60756 0,-3.21512 -0.25721,-1.60756 -1.35035,-3.08651 -0.64302,-0.77163 -1.92907,-0.83593 -1.22174,-0.12861 -2.8293,0.38581 -1.54326,0.45012 -3.27942,1.47896 -1.67186,0.96453 -3.08651,2.31488 -1.41465,1.28605 -2.44349,2.8936 -0.96454,1.60756 -1.09314,3.27942 -0.12861,1.35035 0.0643,2.5078 0.25721,1.15744 0.64302,2.12197 0.38582,0.96454 0.83593,1.80047 0.45012,0.83593 0.83593,1.47895 0.51442,0.90023 1.60756,1.99337 1.09314,1.09314 2.37919,2.5078 1.28605,1.35034 2.57209,3.08651 1.28605,1.73616 2.25059,3.92244 0.96453,2.18628 1.35034,4.88698 0.38582,2.7007 -0.0643,5.98012 -0.70732,4.75837 -2.25058,7.90918 -1.54326,3.21512 -3.40802,5.14419 -1.80047,1.92907 -3.66524,2.765 -1.86476,0.90023 -3.08651,1.15744 -0.96453,0.19291 -2.31488,0.32152 -1.28605,0.1929 -2.765,-0.0643 -1.41466,-0.1929 -2.89361,-0.90023 -1.47895,-0.64302 -2.6364,-2.05767 -1.35034,-1.60756 -2.12197,-3.47233 -0.70733,-1.60756 -1.02884,-3.72954 -0.38581,-2.05767 0.32151,-4.30825 0.51442,-0.57872 1.09314,-1.02884 0.57872,-0.45012 1.15744,-0.77163 0.64303,-0.38581 1.35035,-0.70732 0.83593,-0.25721 1.67186,-0.45012 0.70733,-0.12861 1.47896,-0.12861 0.83593,-0.0643 1.54325,0.19291 -0.96453,1.09314 -1.35035,2.05768 -0.2572,0.51442 -0.38581,0.90023 -0.25721,1.22174 -0.19291,2.8936 0.12861,1.73617 0.70733,3.27942 0.64302,1.60756 1.80046,2.7007 1.15745,1.15744 3.08652,1.22175 4.69407,0.1286 7.97349,-7.33047 1.09314,-2.31488 1.09314,-4.69407 0.0643,-2.37919 -0.57872,-4.56547 -0.57873,-2.18628 -1.60756,-4.05104 -0.96454,-1.92907 -1.99338,-3.27942 -1.02883,-1.35035 -2.50779,-2.89361 -1.41465,-1.60756 -2.8293,-3.47233 -1.41465,-1.86476 -2.57209,-4.05104 -1.09314,-2.18628 -1.47896,-4.75838 -0.51442,-3.60093 0.64303,-6.55883 1.22174,-3.02221 3.21511,-5.2728 2.05768,-2.25058 4.43686,-3.66523 2.44349,-1.41465 4.30826,-1.80047 10.35268,-2.05767 13.5678,3.47233 1.35034,2.12198 1.47895,4.50116 0.1286,2.37919 -0.32151,4.43687 -0.38582,1.99337 -1.02884,3.40802 -0.57872,1.35035 -0.77163,1.47895 -0.38581,0.38582 -1.22174,0.83593 -0.83593,0.45012 -2.7007,0.83593 -0.51442,0.12861 -1.02884,0.12861 -0.45011,0 -0.96453,-0.0643 -0.51442,-0.0643 -0.90024,-0.25721 z m 19.01892,27.32849 q 1.99337,0 4.37256,-1.54325 2.44349,-1.60756 4.69407,-3.72954 2.31488,-2.12198 4.17965,-4.30826 1.92907,-2.25058 2.89361,-3.60093 0.57872,-0.83593 1.09314,-0.96453 0.51442,-0.19291 0.77163,0.1286 0.25721,0.32151 0.1929,1.02884 -0.0643,0.64302 -0.57872,1.47895 -0.45011,0.77163 -1.54325,2.25059 -1.02884,1.41465 -2.5078,3.15081 -1.41465,1.67186 -3.27941,3.47233 -1.80047,1.73616 -3.79384,3.21511 -1.99338,1.41465 -4.11535,2.31489 -2.12198,0.96453 -4.17965,0.96453 -2.82931,0 -4.75838,-1.09314 -1.86477,-1.02883 -3.02221,-2.7007 -1.09314,-1.67186 -1.54325,-3.66523 -0.45012,-2.05767 -0.45012,-4.05105 0,-1.99337 0.90023,-4.95128 0.90024,-2.9579 2.6364,-5.6586 1.80046,-2.765 4.50116,-4.69407 2.7007,-1.99338 6.36593,-1.99338 2.05768,0 3.47233,1.41466 1.47895,1.41465 1.41465,3.85814 0,1.15744 -0.38581,2.31488 -0.38582,1.09314 -1.02884,1.99337 -0.64302,0.83593 -1.54326,1.35035 -0.83593,0.51442 -1.86476,0.51442 -0.83593,0 -1.28605,-0.57872 -0.38581,-0.64302 -0.51442,-1.41465 -0.0643,-0.83593 0,-1.60756 0.12861,-0.77163 0.25721,-1.02884 0.32151,-0.45011 0.70733,-0.64302 0.38581,-0.19291 0.90023,-0.45012 0.38581,-0.1929 0.57872,-0.57872 0.25721,-0.38581 0.25721,-0.83593 0,-0.45012 -0.25721,-0.77163 -0.25721,-0.32151 -0.83593,-0.32151 -0.57872,0 -2.12198,0.96454 -1.47895,0.90023 -3.08651,2.765 -1.54326,1.80046 -2.765,4.56546 -1.22175,2.765 -1.28605,6.43024 -0.0643,2.12197 0.57872,3.47232 0.64303,1.35035 1.60756,2.12198 0.96454,0.77163 2.12198,1.09314 1.15744,0.32151 2.25058,0.32151 z m 46.41172,-10.60988 q -0.90023,1.28604 -2.31488,3.21511 -1.41465,1.86477 -2.95791,3.79384 -1.47895,1.86477 -2.95791,3.47233 -1.41465,1.54325 -2.37918,2.18628 -0.64303,0.38581 -1.47896,0.64302 -0.83593,0.25721 -1.73616,0.32151 -0.83593,0.0643 -1.60756,-0.1286 -0.77163,-0.12861 -1.35035,-0.51442 -0.57872,-0.45012 -0.96453,-1.28605 -0.32152,-0.70732 -0.64303,-1.86477 -0.25721,-1.15744 -0.1929,-2.8936 -1.54326,2.57209 -3.40803,3.98674 -1.86477,1.35035 -3.53663,1.99338 -1.92907,0.70732 -3.85814,0.83593 -0.90023,0 -1.92907,-0.64303 -1.02884,-0.57872 -1.73616,-1.86476 -0.70733,-1.35035 -0.90023,-3.40803 -0.19291,-2.12198 0.51441,-5.01558 0.90024,-3.92244 2.82931,-7.13756 1.99337,-3.21512 4.30825,-5.4657 2.31489,-2.31488 4.56547,-3.47233 2.25058,-1.15744 3.72954,-1.02883 1.73616,0.32151 2.8293,1.02883 0.90023,0.64303 1.15744,1.92907 0.32151,1.22175 -1.02884,3.27942 0.90024,-0.1929 1.47896,-0.25721 0.64302,-0.0643 0.96453,-0.0643 0.38582,0 0.51442,0.0643 0.0643,0.12861 0.0643,0.57873 0,0.38581 -0.1929,1.47895 -0.19291,1.09314 -0.57872,2.95791 -0.38582,1.86476 -1.02884,4.82267 -0.12861,0.57872 -0.25721,1.09314 -0.0643,0.45012 -0.19291,0.96454 -0.0643,0.45011 -0.19291,1.09314 -0.1286,0.64302 -0.32151,1.60756 -0.0643,0.57872 -0.0643,1.28604 0.0643,0.64303 0.25721,1.22175 0.19291,0.57872 0.57872,0.96453 0.45012,0.32151 1.22175,0.32151 0.64302,0 1.67186,-0.77162 1.02883,-0.83593 2.18628,-2.05768 1.15744,-1.28605 2.37918,-2.765 1.28605,-1.54326 2.37919,-2.95791 1.09314,-1.41465 1.92907,-2.50779 0.90023,-1.09314 1.28605,-1.60756 0.51442,-0.57872 1.02883,-0.64302 0.51442,-0.12861 0.77163,0.25721 0.25721,0.38581 0.0643,1.15744 -0.1286,0.77163 -0.90023,1.80047 z m -18.84058,2.8293 q 0.32151,-1.28605 0.77162,-3.02221 0.45012,-1.73616 0.77163,-3.34372 0.32151,-1.60756 0.45012,-2.6364 0.19291,-1.09314 -0.0643,-1.02884 -0.32152,0.0643 -0.70733,0.19291 -0.32151,0.12861 -0.83593,0.19291 -0.51442,0.0643 -1.02884,0.19291 0.51442,-1.02884 0.57872,-1.67187 0.12861,-0.70732 0.0643,-1.09314 -0.0643,-0.45011 -0.25721,-0.70732 -0.70733,-0.57872 -2.50779,0.96453 -1.73617,1.47896 -4.05105,5.53001 -0.96454,1.67186 -1.54326,3.60093 -0.57872,1.86476 -0.83593,3.53662 -0.19291,1.67187 -0.0643,2.95791 0.1286,1.22175 0.51442,1.60756 0.70732,0.70733 1.60756,0.70733 0.90023,-0.0643 1.80046,-0.51442 0.96454,-0.51442 1.86477,-1.28605 0.96453,-0.77163 1.67186,-1.60756 0.77163,-0.83593 1.22174,-1.54325 0.51442,-0.70733 0.57873,-1.02884 z m 34.06566,11.57442 q -1.47896,0 -2.5721,-0.57872 -1.02884,-0.51442 -1.67186,-1.41465 -0.64302,-0.90023 -0.83593,-2.05768 -0.19291,-1.22174 0.12861,-2.57209 0.1929,-0.90023 0.64302,-2.37919 0.45012,-1.54325 0.90023,-3.27942 0.51442,-1.80046 0.90023,-3.53663 0.45012,-1.80046 0.57873,-3.21511 0.1286,-1.47896 -0.12861,-2.37919 -0.25721,-0.96453 -1.09314,-0.96453 -1.02884,0 -2.12198,0.70732 -1.09314,0.64303 -2.25058,1.80047 -1.09314,1.15744 -2.25058,2.7007 -1.09314,1.47895 -2.18628,3.08651 -0.57872,2.18628 -0.96453,3.85814 -0.38582,1.60756 -0.70733,2.95791 -0.25721,1.28604 -0.51442,2.31488 -0.25721,0.96454 -0.45012,1.86477 -0.1929,0.64302 -1.15744,1.28604 -0.96453,0.57873 -2.05767,0.96454 -1.09314,0.38581 -1.86477,0.38581 -0.83593,0 -0.70733,-0.57872 0.0643,-0.38581 0.45012,-1.73616 0.32151,-1.35035 0.83593,-3.15081 0.45012,-1.86477 0.96454,-3.92245 0.51441,-2.05767 0.96453,-3.92244 0.32151,-1.47895 0.70733,-3.27942 0.32151,-1.54326 0.77162,-3.60093 0.51442,-2.05768 1.15745,-4.50116 0.45011,-0.38582 0.90023,-0.57873 0.51442,-0.25721 1.02884,-0.38581 0.51442,-0.19291 1.09314,-0.25721 0.51442,0 1.02883,0.0643 0.45012,0.0643 0.90024,0.25721 0.51442,0.12861 0.90023,0.45012 -0.19291,0.45012 -0.45012,1.28605 -0.25721,0.77162 -0.51442,1.67186 -0.2572,1.02883 -0.64302,2.12197 0.83593,-1.15744 1.86477,-2.31488 1.09314,-1.22174 2.31488,-2.18628 1.28605,-0.96454 2.7007,-1.54326 1.41465,-0.64302 2.89361,-0.64302 1.22174,0 2.18628,0.70733 0.96453,0.70732 1.47895,1.99337 0.57872,1.22174 0.64302,2.95791 0.12861,1.73616 -0.45011,3.79383 l -0.70733,2.82931 q -0.32151,1.35035 -0.83593,3.21511 -0.45011,1.80047 -1.15744,3.98675 -0.38581,1.41465 -0.32151,2.44349 0.1286,1.02884 1.28604,1.02884 1.15745,0 2.89361,-1.41466 1.80047,-1.41465 3.60093,-3.40802 1.80047,-1.99337 3.40802,-4.05105 1.60756,-2.12197 2.44349,-3.40802 0.57872,-0.83593 1.09314,-1.09314 0.51442,-0.25721 0.77163,-0.0643 0.32151,0.1929 0.32151,0.90023 0,0.64302 -0.51442,1.67186 -0.45011,0.90023 -1.41465,2.37919 -0.90023,1.47895 -2.18628,3.15081 -1.28604,1.67186 -2.765,3.40803 -1.47895,1.67186 -3.08651,3.08651 -1.60756,1.35035 -3.21512,2.18628 -1.54325,0.90023 -2.9579,0.90023 z"
       id="text1"
       style="font-size:65.8456px;line-height:1.25;font-family:Satisfy;-inkscape-font-specification:Satisfy;font-variant-ligatures:none;letter-spacing:0.435542px;stroke-width:0.264583"
       aria-label="ShelfScan" />
  </g>
</svg>
