<?xml version="1.0" encoding="UTF-8" standalone="no"?>
<svg
   viewBox="0 0 512 512"
   x="0px"
   y="0px"
   version="1.1"
   id="svg2"
   sodipodi:docname="in-collection-main-colors.svg"
   width="512"
   height="512"
   inkscape:version="1.3 (0e150ed, 2023-07-21)"
   xmlns:inkscape="http://www.inkscape.org/namespaces/inkscape"
   xmlns:sodipodi="http://sodipodi.sourceforge.net/DTD/sodipodi-0.dtd"
   xmlns="http://www.w3.org/2000/svg"
   xmlns:svg="http://www.w3.org/2000/svg">
  <defs
     id="defs2" />
  <sodipodi:namedview
     id="namedview2"
     pagecolor="#ffffff"
     bordercolor="#666666"
     borderopacity="1.0"
     inkscape:showpageshadow="2"
     inkscape:pageopacity="0.0"
     inkscape:pagecheckerboard="0"
     inkscape:deskcolor="#d1d1d1"
     inkscape:zoom="0.30769047"
     inkscape:cx="143.00085"
     inkscape:cy="133.2508"
     inkscape:window-width="2560"
     inkscape:window-height="1387"
     inkscape:window-x="1080"
     inkscape:window-y="275"
     inkscape:window-maximized="1"
     inkscape:current-layer="svg2"
     showgrid="false" />
  <g
     id="g2"
     transform="matrix(18.923852,0,0,18.923852,-47.160194,-199.53694)"
     style="fill:#e07ca4;fill-opacity:0.7;stroke-width:0.0528434">
    <path
       d="M 5.03,32.09 15,37.58 Z M 17,37.6 27.01,32.09 Z"
       id="path1"
       sodipodi:nodetypes="cccccc"
       style="fill:#e07ca4;fill-opacity:0.7;stroke-width:0.0528434" />
    <path
       d="m 15.000008,33.328454 -9.9700009,-5.25 v 4.011552 l 9.9700009,5.49 z m 2,0.02 v 4.251552 l 10.010001,-5.51 v -4.011552 z"
       id="path5"
       sodipodi:nodetypes="cccccccccc"
       style="fill:#e07ca4;fill-opacity:0.7;stroke-width:0.0528434" />
  </g>
  <path
     d="M 66.761528,104.27041 256.00005,-1.1687683e-5 445.23858,104.27041 256.00005,203.99911 Z M 236.69772,236.54814 48.026913,137.19791 v 66.65623 L 236.69772,307.74607 Z m 37.84771,0.37847 v 71.19795 L 463.9732,203.85414 v -66.65623 z"
     id="path4"
     sodipodi:nodetypes="ccccccccccccccc"
     style="fill:#5107df;fill-opacity:0.7;stroke-width:1" />
  <g
     id="g3"
     transform="matrix(18.923852,0,0,18.923852,-47.160194,-300.69823)"
     style="fill:#007200;fill-opacity:0.7;stroke-width:0.0528434">
    <path
       d="M 5.03,32.09 15,37.58 Z M 17,37.6 27.01,32.09 Z"
       id="path2"
       sodipodi:nodetypes="cccccc"
       style="fill:#007200;fill-opacity:0.7;stroke-width:0.0528434" />
    <path
       d="m 15.000008,33.328454 -9.9700009,-5.25 v 4.011552 l 9.9700009,5.49 z m 2,0.02 v 4.251552 l 10.010001,-5.51 v -4.011552 z"
       id="path3"
       sodipodi:nodetypes="cccccccccc"
       style="fill:#007200;fill-opacity:0.7;stroke-width:0.0528434" />
  </g>
</svg>
