<?xml version="1.0" encoding="UTF-8" standalone="no"?>
<svg
   viewBox="0 0 512 512"
   x="0px"
   y="0px"
   version="1.1"
   id="svg2"
   sodipodi:docname="in-collection-main.svg"
   width="512"
   height="512"
   inkscape:version="1.3 (0e150ed, 2023-07-21)"
   xmlns:inkscape="http://www.inkscape.org/namespaces/inkscape"
   xmlns:sodipodi="http://sodipodi.sourceforge.net/DTD/sodipodi-0.dtd"
   xmlns="http://www.w3.org/2000/svg"
   xmlns:svg="http://www.w3.org/2000/svg">
  <defs
     id="defs2" />
  <sodipodi:namedview
     id="namedview2"
     pagecolor="#ffffff"
     bordercolor="#666666"
     borderopacity="1.0"
     inkscape:showpageshadow="2"
     inkscape:pageopacity="0.0"
     inkscape:pagecheckerboard="0"
     inkscape:deskcolor="#d1d1d1"
     inkscape:zoom="0.30769047"
     inkscape:cx="229.12636"
     inkscape:cy="399.75238"
     inkscape:window-width="1728"
     inkscape:window-height="1051"
     inkscape:window-x="0"
     inkscape:window-y="260"
     inkscape:window-maximized="1"
     inkscape:current-layer="svg2" />
  <g
     id="g8"
     transform="matrix(0.87751357,0,0,0.87751357,31.356529,4.5877998e-6)"
     style="stroke-width:1.13958">
    <g
       id="g2"
       transform="matrix(23.293894,0,0,23.293894,-117.16829,-292.3838)"
       style="stroke-width:0.048922">
      <path
         d="M 15,32.35 5.03,27.1 v 4.99 L 15,37.58 Z m 2,0.02 V 37.6 L 27.01,32.09 V 27.1 Z"
         id="path1"
         sodipodi:nodetypes="cccccccccc"
         style="stroke-width:0.048922" />
      <path
         d="m 15.000008,32.350005 -9.9700009,-5.25 v 4.990001 l 9.9700009,5.49 z m 2,0.02 v 5.230001 l 10.010001,-5.51 v -4.990001 z"
         id="path2"
         sodipodi:nodetypes="cccccccccc"
         style="stroke-width:0.048922" />
      <path
         d="m 15.000008,32.350005 -9.9700009,-5.25 v 4.990001 l 9.9700009,5.49 z m 2,0.02 v 5.230001 l 10.010001,-5.51 v -4.990001 z"
         id="path5"
         sodipodi:nodetypes="cccccccccc"
         style="stroke-width:0.048922" />
    </g>
    <g
       id="g4"
       transform="matrix(23.293894,0,0,23.293894,-117.16829,-462.3838)"
       style="stroke-width:0.048922">
      <path
         d="m 6.02,25.36 10,-5.51 10,5.51 -10,5.27 z M 15,32.35 5.03,27.1 v 4.99 L 15,37.58 Z m 2,0.02 V 37.6 L 27.01,32.09 V 27.1 Z"
         id="path3"
         sodipodi:nodetypes="ccccccccccccccc"
         style="stroke-width:0.048922" />
      <path
         d="m 6.0200072,25.360005 10.0000008,-5.51 10.000001,5.51 -10.000001,5.27 z m 8.9800008,6.99 -9.9700009,-5.25 v 4.990001 l 9.9700009,5.49 z m 2,0.02 v 5.230001 l 10.010001,-5.51 v -4.990001 z"
         id="path4"
         sodipodi:nodetypes="ccccccccccccccc"
         style="stroke-width:0.048922" />
    </g>
  </g>
</svg>
