<svg xmlns="http://www.w3.org/2000/svg" xmlns:xlink="http://www.w3.org/1999/xlink" viewBox="0 0 512 512">
  <defs>
    <path id="a" d="M15 32.35 5.03 27.1v4.99L15 37.58zm2 .02v5.23l10.01-5.51V27.1z" style="stroke-width:.048922"/>
  </defs>
  <g style="stroke-width:1.13958">
    <g style="stroke-width:.048922" transform="translate(-71.46 -256.57) scale(20.4407)">
      <path d="M15 32.35 5.03 27.1v4.99L15 37.58Zm2 .02v5.23l10.01-5.51V27.1Z" style="stroke-width:.048922"/>
      <use xlink:href="#a" style="stroke-width:.048922"/>
      <use xlink:href="#a" style="stroke-width:.048922"/>
    </g>
    <g style="stroke-width:.048922">
      <path d="m6.02 25.36 10-5.51 10 5.51-10 5.27zM15 32.35 5.03 27.1v4.99L15 37.58Zm2 .02v5.23l10.01-5.51V27.1Z" style="stroke-width:.048922" transform="translate(-71.46 -405.748) scale(20.4407)"/>
      <path d="m6.02 25.36 10-5.51 10 5.51-10 5.27zM15 32.35 5.03 27.1v4.99L15 37.58zm2 .02v5.23l10.01-5.51V27.1z" style="stroke-width:.048922" transform="translate(-71.46 -405.748) scale(20.4407)"/>
    </g>
  </g>
</svg>
