<?xml version="1.0" encoding="UTF-8" standalone="no"?>
<svg
   viewBox="0 0 512 512"
   x="0px"
   y="0px"
   version="1.1"
   id="svg2"
   sodipodi:docname="in-collection-main-shorter.svg"
   width="512"
   height="512"
   inkscape:version="1.3 (0e150ed, 2023-07-21)"
   xmlns:inkscape="http://www.inkscape.org/namespaces/inkscape"
   xmlns:sodipodi="http://sodipodi.sourceforge.net/DTD/sodipodi-0.dtd"
   xmlns="http://www.w3.org/2000/svg"
   xmlns:svg="http://www.w3.org/2000/svg">
  <defs
     id="defs2" />
  <sodipodi:namedview
     id="namedview2"
     pagecolor="#ffffff"
     bordercolor="#666666"
     borderopacity="1.0"
     inkscape:showpageshadow="2"
     inkscape:pageopacity="0.0"
     inkscape:pagecheckerboard="0"
     inkscape:deskcolor="#d1d1d1"
     inkscape:zoom="0.87028007"
     inkscape:cx="198.78658"
     inkscape:cy="150.52626"
     inkscape:window-width="2560"
     inkscape:window-height="1387"
     inkscape:window-x="1080"
     inkscape:window-y="275"
     inkscape:window-maximized="1"
     inkscape:current-layer="svg2"
     showgrid="false" />
  <g
     id="g1"
     transform="matrix(1.1395835,0,0,1.1395835,3.4837485e-6,1.8729801)"
     style="stroke-width:0.877514">
    <g
       id="g2"
       transform="matrix(20.440708,0,0,20.440708,-102.81676,-322.57092)"
       style="stroke-width:0.0429297">
      <path
         d="M 5.03,32.09 15,37.58 Z M 17,37.6 27.01,32.09 Z"
         id="path1"
         sodipodi:nodetypes="cccccc"
         style="stroke-width:0.0429297" />
      <path
         d="m 15.000008,33.328454 -9.9700009,-5.25 v 4.011552 l 9.9700009,5.49 z m 2,0.02 v 4.251552 l 10.010001,-5.51 v -4.011552 z"
         id="path5"
         sodipodi:nodetypes="cccccccccc"
         style="stroke-width:0.0429297" />
    </g>
    <path
       d="M 20.236448,112.6283 224.64354,0 429.05064,112.6283 224.64354,220.35083 Z M 203.79402,255.50885 1.4476e-4,148.19513 v 71.99911 L 203.79402,332.41372 Z m 40.88141,0.40881 v 76.90488 l 204.61151,-112.6283 v -71.99911 z"
       id="path4"
       sodipodi:nodetypes="ccccccccccccccc"
       style="stroke-width:0.877514" />
  </g>
</svg>
