<svg xmlns="http://www.w3.org/2000/svg" viewBox="0 0 512 512">
  <g fill="#e07ca4" fill-opacity=".7" stroke-width=".053">
    <path d="m48.027 407.73 188.67 103.891ZM274.545 512l189.428-104.27ZM236.698 431.166l-188.671-99.35v75.914l188.67 103.892zm37.847.378V512l189.428-104.27v-75.914z"/>
  </g>
  <path fill="#5107df" fill-opacity=".7" d="M66.762 104.27 256 0 445.24 104.27 256 204Zm169.936 132.278-188.671-99.35v66.656l188.67 103.892Zm37.847.379v71.198l189.428-104.27v-66.657z"/>
  <g fill="#007200" fill-opacity=".7" stroke-width=".053">
    <path d="m48.027 306.568 188.67 103.892Zm226.518 104.27 189.428-104.27ZM236.698 330.005l-188.671-99.35v75.913l188.67 103.892zm37.847.378v80.456l189.428-104.27v-75.915z"/>
  </g>
</svg>
